<svg xmlns="http://www.w3.org/2000/svg" version="1.1" xmlns:xlink="http://www.w3.org/1999/xlink" xmlns:svgjs="http://svgjs.dev/svgjs" width="2000" height="363" viewBox="0 0 2000 363"><g transform="matrix(1,0,0,1,-1.2121212121210192,0.0566326101194079)"><svg viewBox="0 0 396 72" data-background-color="#ffffff" preserveAspectRatio="xMidYMid meet" height="363" width="2000" xmlns="http://www.w3.org/2000/svg" xmlns:xlink="http://www.w3.org/1999/xlink"><g id="tight-bounds" transform="matrix(1,0,0,1,0.23999999999995225,-0.011232914403848326)"><svg viewBox="0 0 395.52 72.02208040024665" height="72.02208040024665" width="395.52"><g><svg viewBox="0 0 519.4742841619724 94.59349377976879" height="72.02208040024665" width="395.52"><g transform="matrix(1,0,0,1,123.95428416197242,16.204227550557615)"><svg viewBox="0 0 395.52 62.18503867865356" height="62.18503867865356" width="395.52"><g id="textblocktransform"><svg viewBox="0 0 395.52 62.18503867865356" height="62.18503867865356" width="395.52" id="textblock"><g><svg viewBox="0 0 395.52 62.18503867865356" height="62.18503867865356" width="395.52"><g transform="matrix(1,0,0,1,0,0)"><svg width="395.52" viewBox="3.96 -36.23 233.51999999999998 36.72" height="62.18503867865356" data-palette-color="#000000"><path d="M27.32-23.07L27.32-23.07Q27.32-20.02 25.87-17.63 24.41-15.23 21.72-13.89 19.02-12.55 15.48-12.55L15.48-12.55 8.62-12.55 8.62 0 3.96 0 3.96-32.93 15.19-32.93Q21-32.93 24.16-30.33 27.32-27.73 27.32-23.07ZM22.63-23L22.63-23Q22.63-29.2 14.62-29.2L14.62-29.2 8.62-29.2 8.62-16.24 14.82-16.24Q18.46-16.24 20.54-18.02 22.63-19.8 22.63-23ZM55.52-26.49L55.52-22.41Q52.78-22.88 50.34-22.88L50.34-22.88Q46.41-22.88 43.99-19.92 41.57-16.97 41.57-12.4L41.57-12.4 41.57 0 37.18 0 37.18-17.11Q37.18-18.97 36.85-21.48 36.52-24 35.91-26.42L35.91-26.42 40.09-26.42Q41.06-23.05 41.26-20.31L41.26-20.31 41.38-20.31Q42.6-23.05 43.77-24.33 44.94-25.61 46.56-26.26 48.17-26.9 50.49-26.9L50.49-26.9Q53.02-26.9 55.52-26.49L55.52-26.49ZM86.71-12.28L67.87-12.28Q67.87-7.84 69.83-5.32 71.8-2.81 75.21-2.81L75.21-2.81Q77.73-2.81 79.62-3.89 81.51-4.98 82.15-6.86L82.15-6.86 86.01-5.76Q84.93-2.73 82.06-1.12 79.19 0.49 75.21 0.49L75.21 0.49Q69.45 0.49 66.35-3.1 63.25-6.69 63.25-13.38L63.25-13.38Q63.25-19.9 66.29-23.4 69.33-26.9 75.07-26.9L75.07-26.9Q80.81-26.9 83.76-23.41 86.71-19.92 86.71-12.87L86.71-12.87 86.71-12.28ZM75.12-23.66L75.12-23.66Q71.85-23.66 69.94-21.52 68.04-19.38 67.91-15.65L67.91-15.65 82.17-15.65Q81.49-23.66 75.12-23.66ZM147.33-23.07L147.33-23.07Q147.33-20.02 145.88-17.63 144.42-15.23 141.73-13.89 139.03-12.55 135.49-12.55L135.49-12.55 128.63-12.55 128.63 0 123.96 0 123.96-32.93 135.2-32.93Q141.01-32.93 144.17-30.33 147.33-27.73 147.33-23.07ZM142.64-23L142.64-23Q142.64-29.2 134.63-29.2L134.63-29.2 128.63-29.2 128.63-16.24 134.83-16.24Q138.47-16.24 140.55-18.02 142.64-19.8 142.64-23ZM176.89-2.71L176.89-2.71Q177.53-2.71 178.33-2.88L178.33-2.88 178.33-0.15Q176.67 0.24 174.94 0.24L174.94 0.24Q172.5 0.24 171.39-1.04 170.28-2.32 170.13-5.05L170.13-5.05 169.98-5.05Q168.4-2.1 166.24-0.81 164.07 0.49 160.9 0.49L160.9 0.49Q157.04 0.49 155.09-1.61 153.14-3.71 153.14-7.37L153.14-7.37Q153.14-15.89 164.22-16.02L164.22-16.02 169.98-16.11 169.98-17.55Q169.98-20.75 168.69-22.16 167.39-23.56 164.56-23.56L164.56-23.56Q161.68-23.56 160.41-22.53 159.14-21.51 158.9-19.36L158.9-19.36 154.31-19.78Q155.43-26.9 164.64-26.9L164.64-26.9Q169.52-26.9 171.97-24.62 174.43-22.34 174.43-18.02L174.43-18.02 174.43-6.64Q174.43-4.69 174.94-3.7 175.45-2.71 176.89-2.71ZM162.02-2.86L162.02-2.86Q164.37-2.86 166.17-3.98 167.98-5.1 168.98-6.98 169.98-8.86 169.98-10.86L169.98-10.86 169.98-13.04 165.34-12.94Q162.46-12.89 160.95-12.3 159.44-11.72 158.59-10.51 157.75-9.3 157.75-7.3L157.75-7.3Q157.75-5.3 158.84-4.08 159.92-2.86 162.02-2.86ZM183.19-13.23L183.19-13.23Q183.19-19.82 186.34-23.36 189.49-26.9 195.44-26.9L195.44-26.9Q199.89-26.9 202.77-24.77 205.65-22.63 206.33-19.02L206.33-19.02 201.65-18.68Q201.25-20.9 199.69-22.18 198.13-23.46 195.25-23.46L195.25-23.46Q191.39-23.46 189.6-21.07 187.8-18.68 187.8-13.33L187.8-13.33Q187.8-7.91 189.6-5.41 191.39-2.91 195.22-2.91L195.22-2.91Q197.86-2.91 199.59-4.2 201.33-5.49 201.74-8.15L201.74-8.15 206.38-7.86Q206.06-5.52 204.61-3.6 203.16-1.68 200.77-0.6 198.37 0.49 195.42 0.49L195.42 0.49Q189.44 0.49 186.31-3.03 183.19-6.54 183.19-13.23ZM237.48 0L232.33 0 223.4-12.18 220.17-9.79 220.17 0 215.78 0 215.78-36.23 220.17-36.23 220.17-13.6 231.77-26.42 236.92-26.42 226.2-15.06 237.48 0Z" opacity="1" transform="matrix(1,0,0,1,0,0)" fill="#000000" class="wordmark-text-0" data-fill-palette-color="primary" id="text-0"></path></svg></g></svg></g></svg></g></svg></g><g><svg viewBox="0 0 94.59349377976879 94.59349377976879" height="94.59349377976879" width="94.59349377976879"><g><svg></svg></g><g id="icon-0"><svg viewBox="0 0 94.59349377976879 94.59349377976879" height="94.59349377976879" width="94.59349377976879"><g><path d="M0 47.297c0-26.121 21.175-47.297 47.297-47.297 26.121 0 47.297 21.175 47.297 47.297 0 26.121-21.175 47.297-47.297 47.297-26.121 0-47.297-21.175-47.297-47.297zM47.297 88.986c23.024 0 41.689-18.665 41.689-41.689 0-23.024-18.665-41.689-41.689-41.689-23.024 0-41.689 18.665-41.689 41.689 0 23.024 18.665 41.689 41.689 41.689z" data-fill-palette-color="tertiary" fill="#000000" stroke="transparent"></path></g><g transform="matrix(1,0,0,1,28.424710575187138,23.43555815240784)"><svg viewBox="0 0 37.744072629394516 47.72237747495311" height="47.72237747495311" width="37.744072629394516"><g><svg xmlns="http://www.w3.org/2000/svg" xmlns:xlink="http://www.w3.org/1999/xlink" version="1.1" x="0" y="0" viewBox="34.074 25.463 32.852000000000004 41.537" enable-background="new 0 0 100 100" xml:space="preserve" height="47.72237747495311" width="37.744072629394516" class="icon-cg-0" data-fill-palette-color="accent" id="cg-0"><g fill="#ffdc00" data-fill-palette-color="accent"><g fill="#ffdc00" data-fill-palette-color="accent"><polygon points="66.926,67 58.337,67 62.202,33 64.134,33   " fill="#000000" data-fill-palette-color="accent"></polygon><g fill="#ffdc00" data-fill-palette-color="accent"><polygon points="50.793,45.126 59.124,33 38.011,33 41.131,45.602    " fill="#000000" data-fill-palette-color="accent"></polygon><polygon points="51.438,46.591 46.949,46.687 46.713,50.897 43.277,50.827 44.125,46.748 40.558,46.82 37.496,36.556 34.074,67      55.976,67 60.483,35 58.552,35    " fill="#000000" data-fill-palette-color="accent"></polygon></g><polygon points="46.456,31 47.954,31 48.952,27 53.07,27 53.694,31 56.19,31 54.692,25.463 48.204,25.69   " fill="#000000" data-fill-palette-color="accent"></polygon><polygon points="44.882,48 44.381,49.924 46.027,49.964 45.884,48   " fill="#000000" data-fill-palette-color="accent"></polygon></g></g></svg></g></svg></g></svg></g></svg></g></svg></g><defs></defs></svg><rect width="395.52" height="72.02208040024665" fill="none" stroke="none" visibility="hidden"></rect></g></svg></g></svg>